<?xml version="1.0" encoding="UTF-8" standalone="no"?>
<svg
   xmlns:dc="http://purl.org/dc/elements/1.1/"
   xmlns:cc="http://creativecommons.org/ns#"
   xmlns:rdf="http://www.w3.org/1999/02/22-rdf-syntax-ns#"
   xmlns:svg="http://www.w3.org/2000/svg"
   xmlns="http://www.w3.org/2000/svg"
   xmlns:sodipodi="http://sodipodi.sourceforge.net/DTD/sodipodi-0.dtd"
   xmlns:inkscape="http://www.inkscape.org/namespaces/inkscape"
   inkscape:version="1.0 (4035a4fb49, 2020-05-01)"
   sodipodi:docname="LOGO_HARPIA_EXT.svg"
   id="svg258"
   xml:space="preserve"
   enable-background="new 0 0 1400 980"
   viewBox="0 0 664 197"
   y="0px"
   x="0px"
   version="1.1"
   width="664"
   height="197"><metadata
   id="metadata264"><rdf:RDF><cc:Work
       rdf:about=""><dc:format>image/svg+xml</dc:format><dc:type
         rdf:resource="http://purl.org/dc/dcmitype/StillImage" /><dc:title></dc:title></cc:Work></rdf:RDF></metadata><defs
   id="defs262"><rect
     x="776.94189"
     y="519.64612"
     width="493.87518"
     height="356.91144"
     id="rect996" /><rect
     x="869.24213"
     y="552.61957"
     width="282.70001"
     height="80.199997"
     id="rect990" /><rect
     x="633.49469"
     y="382.77625"
     width="546.04749"
     height="284.74335"
     id="rect984" /><rect
     x="77.139145"
     y="217.88426"
     width="442.5351"
     height="142.09843"
     id="rect155" /><rect
     x="452.00833"
     y="648.2395"
     width="378.92914"
     height="115.03206"
     id="rect149" /><rect
     id="rect1145"
     height="238.18404"
     width="614.40656"
     y="75.785828"
     x="364.04263" /><rect
     id="rect1139"
     height="228.7108"
     width="469.60147"
     y="75.785828"
     x="345.09619" /><clipPath
     id="clipPath300"
     clipPathUnits="userSpaceOnUse"><path
       clip-path="none"
       id="path302"
       d="m 75.598307,331.10144 37.320683,-48.80397 96.651,142.58415 66.98584,4.78471 22.00963,62.20113 -91.86629,41.14845 -93.78018,21.05269 -82.296891,-132.0578 z"
       style="fill:none;stroke:#000000;stroke-width:1px;stroke-linecap:butt;stroke-linejoin:miter;stroke-opacity:1" /></clipPath><clipPath
     id="clipPath304"
     clipPathUnits="userSpaceOnUse"><path
       clip-path="none"
       id="path306"
       d="m 113.99831,191.80144 37.32068,-48.80397 96.651,142.58415 66.98584,4.78471 22.00963,62.20113 -91.86629,41.14845 -93.78018,21.05269 -82.296891,-132.0578 z"
       style="fill:none;stroke:#000000;stroke-width:1px;stroke-linecap:butt;stroke-linejoin:miter;stroke-opacity:1" /></clipPath><clipPath
     id="clipPath308"
     clipPathUnits="userSpaceOnUse"><path
       clip-path="none"
       id="path310"
       d="m 75.598307,331.10144 37.320683,-48.80397 96.651,142.58415 66.98584,4.78471 22.00963,62.20113 -91.86629,41.14845 -93.78018,21.05269 -82.296891,-132.0578 z"
       style="fill:none;stroke:#000000;stroke-width:1px;stroke-linecap:butt;stroke-linejoin:miter;stroke-opacity:1" /></clipPath></defs><sodipodi:namedview
   inkscape:current-layer="svg258"
   inkscape:window-maximized="1"
   inkscape:window-y="-6"
   inkscape:window-x="-6"
   inkscape:cy="145.79148"
   inkscape:cx="338.33983"
   inkscape:zoom="1.2931178"
   showgrid="false"
   id="namedview260"
   inkscape:window-height="838"
   inkscape:window-width="1440"
   inkscape:pageshadow="2"
   inkscape:pageopacity="0"
   guidetolerance="10"
   gridtolerance="10"
   objecttolerance="10"
   borderopacity="1"
   bordercolor="#666666"
   pagecolor="#ffffff"
   inkscape:document-rotation="0" />
<g
   transform="translate(-155.88557,-442.53715)"
   clip-path="url(#clipPath308)"
   style="fill:none"
   id="Background">
	
		<radialGradient
   gradientUnits="userSpaceOnUse"
   gradientTransform="matrix(1,0,0,0.7395,0,127.8918)"
   r="823.38519"
   cy="491.0032"
   cx="698.52112"
   id="SVGID_1_">
		<stop
   id="stop2"
   style="stop-color:#335C6D"
   offset="0" />
		<stop
   id="stop4"
   style="stop-color:#2F5566"
   offset="0.2966" />
		<stop
   id="stop6"
   style="stop-color:#204351"
   offset="0.773" />
		<stop
   id="stop8"
   style="stop-color:#163744"
   offset="1" />
	</radialGradient>
	<rect
   style="fill:none"
   id="rect11"
   height="995.5"
   width="1433.7"
   fill="url(#SVGID_1_)"
   y="-6.6999998"
   x="-18.299999" />
</g>
<g
   clip-path="url(#clipPath304)"
   transform="matrix(0.82220427,0,0,0.82220427,-82.696462,-129.97885)"
   style="fill:#3a3a3a;fill-opacity:1"
   id="Object">
	<g
   style="fill:#3a3a3a;fill-opacity:1"
   id="g26">
		<path
   style="fill:#3a3a3a;fill-opacity:1"
   id="path14"
   d="m 659.1,797.6 c 0,0 7.7,7.7 10.7,11.7 0,0 56.2,-9.7 73.5,-12.3 0,0 -50.5,-3 -84.2,0.6 z"
   fill="#FFFFFF" />
		<path
   style="fill:#3a3a3a;fill-opacity:1"
   id="path16"
   d="m 678,815.4 8.2,8.7 c 0,0 27.1,-11.2 40.3,-16.8 0,0 -18.4,0 -48.5,8.1 z"
   fill="#FFFFFF" />
		<path
   style="fill:#3a3a3a;fill-opacity:1"
   id="path18"
   d="m 631,772 16.8,17.9 126.6,-2.6 c 0,0 22.5,-61.3 63.8,-68.9 0,0 -45.9,-6.1 -84.2,60.8 z"
   fill="#FFFFFF" />
		<path
   style="fill:#3a3a3a;fill-opacity:1"
   id="path20"
   d="m 717.3,747 28.1,9.2 c 0,0 47,-50.5 99,-48 0,0 -59.7,-22.5 -127.1,38.8 z"
   fill="#FFFFFF" />
		<path
   style="fill:#3a3a3a;fill-opacity:1"
   id="path22"
   d="m 690.7,706.2 23.5,14.3 c 0,0 61.3,-39.8 141.4,-26 0,-0.1 -80.1,-37.9 -164.9,11.7 z"
   fill="#FFFFFF" />
		<path
   style="fill:#3a3a3a;fill-opacity:1"
   id="path24"
   d="m 668.3,652.1 40.3,23.5 c 0,0 90.4,-28.1 160.3,11.7 0,0 -45.8,56.5 -49.5,102.4 0,0 30.3,-0.7 40.2,-0.7 9.9,0 12.3,4.8 12.3,4.8 0,0 -9.5,-0.7 -9.9,5.4 0,0 6.5,-3.4 12.6,-3.1 0,0 1,-2 9.2,-2.4 8.2,-0.3 12.3,4.1 12.3,8.8 0,0 -9.5,-1 -19.4,3.4 -9.9,4.4 -25.2,9.9 -52.8,14 0,0 15.7,4.1 34,-2.7 18.3,-6.8 35.7,-15.7 39.1,-8.8 0,0 4.8,-1.7 3.1,-8.8 -1.7,-7.1 -11.2,-12.6 -24.5,-9.2 0,0 -3.4,-7.5 -8.2,-7.1 -4.8,0.3 -40.5,1 -40.5,1 0,0 19.4,-66.7 65.3,-94.6 0,0 -84.7,-73.9 -223.9,-37.6 z"
   fill="#FFFFFF" />
	</g>
	<g
   style="fill:#3a3a3a;fill-opacity:1"
   id="g42">
		<path
   style="fill:#3a3a3a;fill-opacity:1"
   id="path28"
   d="m 198.9,268 c 0,0 -57.4,-32.6 -72.3,-62.8 l -11,16 c 0,0 27.7,33 83.3,46.8 z"
   fill="#FFFFFF" />
		<path
   style="fill:#3a3a3a;fill-opacity:1"
   id="path30"
   d="m 198.6,275.5 c 0,0 -57.4,-9.9 -81.5,-33.3 l -10.6,12.4 c -0.1,-0.1 38.9,31.8 92.1,20.9 z"
   fill="#FFFFFF" />
		<path
   style="fill:#3a3a3a;fill-opacity:1"
   id="path32"
   d="m 198.6,285.7 c 0,0 -60.6,2.8 -86.2,-12.4 l -8.9,17.4 c 0.1,0 53.9,14.2 95.1,-5 z"
   fill="#FFFFFF" />
		<path
   style="fill:#3a3a3a;fill-opacity:1"
   id="path34"
   d="m 200,292.5 c 0,0 -43.3,19.1 -84,14.2 l -8.5,13.8 c 0,0 60.6,4.6 92.5,-28 z"
   fill="#FFFFFF" />
		<path
   style="fill:#3a3a3a;fill-opacity:1"
   id="path36"
   d="m 202.1,303.8 c 0,0 -31.2,23.8 -76.9,29.1 l -8.5,16.3 c 0,0 68.4,-11.7 85.4,-45.4 z"
   fill="#FFFFFF" />
		<path
   style="fill:#3a3a3a;fill-opacity:1"
   id="path38"
   d="m 205.7,314.1 c 0,0 -20.2,28 -58.9,40.1 l -6.7,19.1 c 0,0 47.5,-11.7 65.6,-59.2 z"
   fill="#FFFFFF" />
		<path
   style="fill:#3a3a3a;fill-opacity:1"
   id="path40"
   d="m 149.3,160.2 -17.7,25.5 c 0,0 28.7,45.7 73.4,73.7 0,0 -1.8,87.9 52.1,91.8 0,0 -20.6,31.2 -82.6,18.8 0,0 12.1,3.2 15.6,11.3 3.5,8.2 -2.1,11.7 -10.6,11 0,0 18.1,8.5 18.4,-8.9 0,0 9.6,7.8 -1.8,13.8 0,0 12.8,-1.4 8.9,-13.8 0,0 6.7,1.1 6.4,9.9 0,0 10.3,-10.6 -11,-16.7 0,0 24.8,1.1 35.1,-2.5 10.3,-3.5 35.8,-19.9 42.9,-37.6 3.9,-10.3 7.8,-15.6 15.6,-15.2 7.8,0.4 8.9,2.8 9.2,6.4 0,0 5,-0.7 6.7,-6.7 1.8,-6 -2.5,-16 -13.8,-16 0,0 0,-7.4 -8.2,-7.8 -8.2,-0.4 -24.5,0 -28.7,1.8 0,0 4.6,2.1 6.4,4.3 0,0 -12.1,1.4 -17.4,5 l 7.8,1.8 c 0,0 -15.6,3.9 -20.9,12.4 0,0 18.4,-10.6 30.8,-9.9 l -5.3,-4.6 c 0,0 6,-2.1 11.3,-2.1 l -1.8,-4.6 c 0,0 22.7,-2.5 22,6.4 l -10.6,1.8 c 0,0 14.5,-0.4 18.4,2.1 3.9,2.5 6.4,3.9 4.3,8.5 0,0 -11,-6.7 -19.9,-1.1 -8.9,5.7 -7.8,19.9 -19.5,23.4 -11.7,3.5 -28,0 -38.6,-22 -10.6,-22 -8.5,-65.2 -8.5,-65.2 0,0 -53.5,-49.2 -68.4,-95 z"
   fill="#FFFFFF" />
	</g>
	<g
   style="fill:#3a3a3a;fill-opacity:1"
   id="g62">
		<path
   style="fill:#3a3a3a;fill-opacity:1"
   id="path44"
   d="m 773.5,398.7 c 0,0 -26.6,5.9 -42,6.4 l 3.2,9.6 c 0,-0.1 22.8,-4.9 38.8,-16 z"
   fill="#FFFFFF" />
		<path
   style="fill:#3a3a3a;fill-opacity:1"
   id="path46"
   d="m 792.1,387 c 0,0 -30.3,4.8 -55.8,2.1 v 11.2 c 0,0 37.7,-0.6 55.8,-13.3 z"
   fill="#FFFFFF" />
		<path
   style="fill:#3a3a3a;fill-opacity:1"
   id="path48"
   d="m 733.1,368.9 0.5,12.2 c 0,0 28.7,12.8 64.4,-0.5 35.7,-13.3 97.3,-9 111.2,-2.7 13.8,6.4 27.7,6.9 32.4,6.9 4.7,0 9.6,2.1 10.1,5.3 0,0 -7.7,-1.9 -9.3,1.6 0,0 5.6,-1.3 11.4,2.4 5.9,3.7 2.7,9 2.7,9 0,0 -2.4,-4.8 -6.4,-5.1 -4,-0.3 -17,-1.9 -35.6,3.2 -18.6,5.1 -19.1,9.6 -58,11.2 0,0 25.3,4.8 41.5,-1.6 16.2,-6.4 30,-9.3 39.9,-9.6 9.8,-0.3 16.5,1.1 17.8,7.2 0,0 5.6,0 5.3,-12 0.3,-4.5 -5.9,-7.4 -5.9,-7.4 0,0 -2.4,-8 -13,-9 -10.6,-1 -17.6,-2.1 -24.2,-5.6 -6.6,-3.5 -25,-6.6 -25,-6.6 0,0 -2.4,-62.5 -0.5,-83.2 1.9,-20.7 24.2,-84.3 34.3,-100 0,0 -32.2,-2.4 -43.3,47.1 -11.1,49.5 -0.3,128.4 -0.3,128.4 0,0 -45.7,-47.9 -66.7,-95.7 -21,-47.8 -25,-71.3 -26.1,-97.9 0,0 -24.7,17.6 -12.2,60.9 12.5,43.3 24.7,59.6 103.4,137.7 0,0 -37.8,-0.3 -62,5.6 -24.2,5.9 -65.4,17.1 -86.4,-1.8 z"
   fill="#FFFFFF" />
		<path
   style="fill:#3a3a3a;fill-opacity:1"
   id="path50"
   d="m 795.6,349.2 c 0,0 14.4,8 31.4,4.3 -0.1,0 -25.8,15.9 -31.4,-4.3 z"
   fill="#FFFFFF" />
		<path
   style="fill:#3a3a3a;fill-opacity:1"
   id="path52"
   d="m 830.4,345.2 c 0,0 -41,-6.6 -59.6,-27.4 0,0 0.3,32.5 59.6,27.4 z"
   fill="#FFFFFF" />
		<path
   style="fill:#3a3a3a;fill-opacity:1"
   id="path54"
   d="m 830.7,340.4 c 0,0 -64.6,-41.2 -79,-75.5 0,0 -1.9,14.9 0.3,20.5 2.1,5.6 34.5,42.8 78.7,55 z"
   fill="#FFFFFF" />
		<path
   style="fill:#3a3a3a;fill-opacity:1"
   id="path56"
   d="m 846.9,343.1 c 0,0 -52.4,-45.7 -69.9,-84.6 -17.5,-38.9 -16.8,-57.7 -16.8,-57.7 0,0 -12.8,17.8 -6.4,43.1 6.4,25.3 52.4,80.3 93.1,99.2 z"
   fill="#FFFFFF" />
		<path
   style="fill:#3a3a3a;fill-opacity:1"
   id="path58"
   d="m 841.8,243.6 c 0,0 -0.8,32.2 16,73.9 0,0 -14.9,-20.5 -19.9,-36.4 -5.1,-15.9 -4.8,-31.6 3.9,-37.5 z"
   fill="#FFFFFF" />
		<path
   style="fill:#3a3a3a;fill-opacity:1"
   id="path60"
   d="m 875.1,340.7 c 0,0 -10.9,-39.9 -8.8,-71.3 2.1,-31.4 14.1,-71.3 14.1,-71.3 0,0 -25.8,8.2 -26.9,37.5 -1,29.3 5.6,80.6 21.6,105.1 z"
   fill="#FFFFFF" />
	</g>
	<g
   style="fill:#3a3a3a;fill-opacity:1"
   id="g108">
		<path
   style="fill:#3a3a3a;fill-opacity:1"
   id="path64"
   d="m 289.6,192.5 17.6,18.6 c 0,0 60.6,-40.4 128.2,-23.9 0,0 -10.1,55.3 51.6,67 l 1.1,-5.9 c 0,0 -57.6,-16.5 -30,-67.2 -0.1,0.1 -74.9,-30.4 -168.5,11.4 z"
   fill="#FFFFFF" />
		<path
   style="fill:#3a3a3a;fill-opacity:1"
   id="path66"
   d="m 425.1,196.4 v 2.8 c 0,0 -58.1,6.4 -88.6,38.6 L 321.6,224 c -0.1,0.1 32.9,-32.9 103.5,-27.6 z"
   fill="#FFFFFF" />
		<path
   style="fill:#3a3a3a;fill-opacity:1"
   id="path68"
   d="m 428.3,207 0.7,3.2 c 0,0 -45,10.3 -68.8,42.5 l -14.5,-11 c -0.1,0.1 28.7,-26.2 82.6,-34.7 z"
   fill="#FFFFFF" />
		<path
   style="fill:#3a3a3a;fill-opacity:1"
   id="path70"
   d="m 432.5,220.2 1.1,2.5 c 0,0 -31.2,14.2 -47.5,44 l -15.2,-7.8 c -0.1,-0.1 13.7,-22.1 61.6,-38.7 z"
   fill="#FFFFFF" />
		<path
   style="fill:#3a3a3a;fill-opacity:1"
   id="path72"
   d="m 439.3,231.1 1.4,1.8 c 0,0 -20.9,15.6 -26.6,43.3 l -17.4,-5.7 c 0,0 14.5,-26.2 42.6,-39.4 z"
   fill="#FFFFFF" />
		<path
   style="fill:#3a3a3a;fill-opacity:1"
   id="path74"
   d="m 448.4,241.2 2.2,1.7 c 0,0 -11.8,14.1 -12.7,38.9 l -15,-3.2 c 0,0 6,-20.7 25.5,-37.4 z"
   fill="#FFFFFF" />
		<path
   style="fill:#3a3a3a;fill-opacity:1"
   id="path76"
   d="m 460.5,251 2.1,0.7 c 0,0 -6,17 -5.7,32.6 l -10.3,-1.4 c 0.1,0 1.2,-18.1 13.9,-31.9 z"
   fill="#FFFFFF" />
		<path
   style="fill:#3a3a3a;fill-opacity:1"
   id="path78"
   d="m 474.4,257.4 2.5,0.4 c 0,0 -3.9,13.5 -0.7,25.5 h -9.9 c -0.1,0 1,-16.3 8.1,-25.9 z"
   fill="#FFFFFF" />
		<path
   style="fill:#3a3a3a;fill-opacity:1"
   id="path80"
   d="m 726.3,192.5 -17.6,18.6 c 0,0 -60.6,-40.4 -128.2,-23.9 0,0 10.1,55.3 -51.6,67 l -1.1,-5.9 c 0,0 57.6,-16.5 30,-67.2 0.1,0.1 74.9,-30.4 168.5,11.4 z"
   fill="#FFFFFF" />
		<path
   style="fill:#3a3a3a;fill-opacity:1"
   id="path82"
   d="m 590.8,196.4 v 2.8 c 0,0 58.1,6.4 88.6,38.6 L 694.3,224 c 0.1,0.1 -32.9,-32.9 -103.5,-27.6 z"
   fill="#FFFFFF" />
		<path
   style="fill:#3a3a3a;fill-opacity:1"
   id="path84"
   d="m 587.6,207 -0.7,3.2 c 0,0 45,10.3 68.8,42.5 l 14.5,-11 c 0,0.1 -28.7,-26.2 -82.6,-34.7 z"
   fill="#FFFFFF" />
		<path
   style="fill:#3a3a3a;fill-opacity:1"
   id="path86"
   d="m 583.4,220.2 -1.1,2.5 c 0,0 31.2,14.2 47.5,44 l 15.2,-7.8 c 0.1,-0.1 -13.8,-22.1 -61.6,-38.7 z"
   fill="#FFFFFF" />
		<path
   style="fill:#3a3a3a;fill-opacity:1"
   id="path88"
   d="m 576.6,231.1 -1.4,1.8 c 0,0 20.9,15.6 26.6,43.3 l 17.4,-5.7 c 0,0 -14.5,-26.2 -42.6,-39.4 z"
   fill="#FFFFFF" />
		<path
   style="fill:#3a3a3a;fill-opacity:1"
   id="path90"
   d="m 567.5,241.2 -2.2,1.7 c 0,0 11.8,14.1 12.7,38.9 l 15,-3.2 c 0,0 -6,-20.7 -25.5,-37.4 z"
   fill="#FFFFFF" />
		<path
   style="fill:#3a3a3a;fill-opacity:1"
   id="path92"
   d="m 555.4,251 -2.1,0.7 c 0,0 6,17 5.7,32.6 l 10.3,-1.4 c -0.1,0 -1.2,-18.1 -13.9,-31.9 z"
   fill="#FFFFFF" />
		<path
   style="fill:#3a3a3a;fill-opacity:1"
   id="path94"
   d="m 541.5,257.4 -2.5,0.4 c 0,0 3.9,13.5 0.7,25.5 h 9.9 c 0.1,0 -1,-16.3 -8.1,-25.9 z"
   fill="#FFFFFF" />
		<path
   style="fill:#3a3a3a;fill-opacity:1"
   id="path96"
   d="m 589.1,373.7 c -7.8,-2.8 -19.5,2.8 -19.5,2.8 11,-23.8 23.8,-8.2 23.8,-8.2 -1.1,-5.3 -8.9,-12.8 -15.6,-9.2 -6.7,3.6 -12.1,12.1 -12.1,12.1 l -15.6,-18.6 5,-3.4 c 0,0 -24.8,-20.2 -24.5,-33 0.4,-12.8 9.6,-42.2 -4.3,-69.8 -5,-12.8 -3.5,-15.6 0.4,-13.8 0,0 -3.5,-13.5 -3.2,-23.8 0.4,-10.3 0,-20.2 -7.8,-26.9 0,0 2.8,-8.2 7.8,-9.6 0,0 -29.8,-8.5 -34,6.4 0,0 -13.5,1.4 -16.7,9.9 -3.2,8.5 4.3,12.4 4.3,12.4 0,0 -0.7,-6.4 5.7,-8.2 6.4,-1.8 9.9,1.4 8.9,5 -1.1,3.5 -5.7,3.9 -5.7,3.9 0,0 6.7,5.3 14.2,-1.8 0,0 1.1,11 -4.3,22 0,0 12.1,-7.1 8.2,-29.4 0,0 -7.8,4.3 -11,0.4 -3.2,-3.9 -9.6,-4.6 -14.5,-1.8 0,0 2.5,-8.2 12.4,-6.7 9.9,1.4 12.4,-1.4 12.4,-1.4 0,0 -8.9,-0.7 -7.8,-4.6 1.1,-3.9 14.5,0 14.5,0 0,0 -1.8,5.7 2.8,7.8 4.6,2.1 7.4,11.3 5.3,20.2 -2.1,8.9 1.1,16 1.1,16 0,0 -6,-0.7 -4.6,10.6 1.4,11.3 13.1,32.3 11.7,48.6 -1.4,16.3 -8.5,35.8 -2.1,45.7 0,0 -23.8,-5.3 -35.5,10.6 l 2.8,-10.3 -9.2,7.1 4.6,-15.6 c 0,0 -14.5,24.8 -20.2,29.4 l 5.9,4.2 -15.5,18.5 c 0,0 -5.3,-8.5 -12.1,-12.1 -6.7,-3.5 -14.5,3.9 -15.6,9.2 0,0 12.8,-15.6 23.8,8.2 0,0 -11.7,-5.7 -19.5,-2.8 -7.8,2.8 -3.5,14.2 -3.5,14.2 0,0 1.1,-16.7 20.6,-6.4 0,0 -24.1,4.6 -9.6,19.5 0,0 -3.5,-14.9 16.3,-15.6 19.9,-0.7 11,11.7 11,11.7 0,0 8.2,-2.1 7.1,-9.9 -1.1,-7.8 -12.8,-6.7 -13.5,-11.3 -0.6,-3.6 9.4,-15.8 13.7,-20.8 l 3.3,2.4 c 0,0 15.6,-21.6 31.9,-20.6 16.3,1.1 31.9,20.6 31.9,20.6 l 3.8,-2.6 c 4.2,4.9 14.4,17.3 13.8,21 -0.7,4.6 -12.4,3.5 -13.5,11.3 -1.1,7.8 7.1,9.9 7.1,9.9 0,0 -8.9,-12.4 11,-11.7 19.9,0.7 16.3,15.6 16.3,15.6 14.5,-14.9 -9.6,-19.5 -9.6,-19.5 19.5,-10.3 20.6,6.4 20.6,6.4 0,0 4.4,-11.4 -3.4,-14.2 z"
   fill="#FFFFFF" />
		<polygon
   style="fill:#3a3a3a;fill-opacity:1"
   id="polygon98"
   points="518.7,419.4 503.1,419.8 510.2,340.4 512.3,340.4 "
   fill="#FFFFFF" />
		<polygon
   style="fill:#3a3a3a;fill-opacity:1"
   id="polygon100"
   points="486.4,418.7 506.6,340.7 497.4,420.1 "
   fill="#FFFFFF" />
		<polygon
   style="fill:#3a3a3a;fill-opacity:1"
   id="polygon102"
   points="472.2,415.2 501.7,342.1 482.9,418.4 "
   fill="#FFFFFF" />
		<polygon
   style="fill:#3a3a3a;fill-opacity:1"
   id="polygon104"
   points="533.2,418.7 513,340.7 522.2,420.1 "
   fill="#FFFFFF" />
		<polygon
   style="fill:#3a3a3a;fill-opacity:1"
   id="polygon106"
   points="547.4,415.2 518,342.1 536.8,418.4 "
   fill="#FFFFFF" />
	</g>
	<g
   style="fill:#3a3a3a;fill-opacity:1"
   id="g126">
		<path
   style="fill:#3a3a3a;fill-opacity:1"
   id="path110"
   d="m 942,248.5 c 0,0 35.1,22.9 85.6,19.1 50.5,-3.7 100.5,-4.3 128.2,6.9 27.7,11.2 46.3,35.1 56.4,40.4 0,0 13.8,-21.3 54.8,-24.5 41,-3.2 88.8,1.1 110.1,-9 0,0 -12.8,22.3 -58,18.6 -45.2,-3.7 -83.5,-3.2 -101.6,19.1 0,0 31.9,24.5 41,22.9 l 1.6,6.4 c 0,0 13.3,2.7 9.6,18.1 0,0 -6.4,-5.3 -18.1,-3.7 -11.7,1.6 -42,-4.3 -54.2,-10.6 -12.2,-6.3 -70.7,-16 -130.8,14.9 l -12.2,-8.5 c 0,0 29.3,-19.7 80.8,-21.3 51.6,-1.6 68.6,12.8 78.7,15.4 10.1,2.7 33,6.4 38.8,6.4 5.9,0 12.8,1.1 12.8,1.1 0,0 -1.1,-9.6 -15.4,-9.6 l 3.7,-3.7 c 0,0 -14.4,-6.4 -39.4,-23.4 -25,-17 -48.9,-43.6 -89.3,-46.3 -40.4,-2.7 -95.2,9 -136.2,3.7 -41,-5.3 -48.5,-23.3 -46.9,-32.4 z"
   fill="#FFFFFF" />
		<path
   style="fill:#3a3a3a;fill-opacity:1"
   id="path112"
   d="m 1071.3,333.6 c 0,0 -33,-1.1 -54.8,8 l 10.1,6.4 c 0,0 26.6,-11.7 44.7,-14.4 z"
   fill="#FFFFFF" />
		<path
   style="fill:#3a3a3a;fill-opacity:1"
   id="path114"
   d="m 1097.9,336.8 c 0,0 -33.5,-2.1 -64.4,15.4 l 12.8,5.9 c 0,0 26,-16.5 51.6,-21.3 z"
   fill="#FFFFFF" />
		<path
   style="fill:#3a3a3a;fill-opacity:1"
   id="path116"
   d="m 1193.1,314.5 c 0,0 -14.9,-11.2 -29.3,-8.5 -14.4,2.7 -38.3,9 -46.8,9.6 0,0 9,8.5 33,0.5 23.9,-8 43.1,-1.6 43.1,-1.6 z"
   fill="#FFFFFF" />
		<path
   style="fill:#3a3a3a;fill-opacity:1"
   id="path118"
   d="m 1175,301.7 c 0,0 -37.2,-16.5 -86.2,1.6 0,0 16,7.4 32.4,3.7 16.5,-3.7 41.5,-5.8 53.8,-5.3 z"
   fill="#FFFFFF" />
		<path
   style="fill:#3a3a3a;fill-opacity:1"
   id="path120"
   d="m 1164.9,292.1 c 0,0 -25,-14.9 -63.8,-9 -38.8,5.9 -71.3,11.7 -84,8 0,0 10.6,16 36.7,11.2 38.7,-5.9 68.5,-22.9 111.1,-10.2 z"
   fill="#FFFFFF" />
		<path
   style="fill:#3a3a3a;fill-opacity:1"
   id="path122"
   d="m 1207.9,303.8 c 0,0 5.9,-34 27.1,-24.5 0.1,0.1 -22.3,18.7 -27.1,24.5 z"
   fill="#FFFFFF" />
		<path
   style="fill:#3a3a3a;fill-opacity:1"
   id="path124"
   d="m 1212.7,307.6 c 0,0 25,-30.8 56.4,-34 31.4,-3.2 37.2,10.1 34,10.1 -3.1,-0.1 -45.7,-9.7 -90.4,23.9 z"
   fill="#FFFFFF" />
	</g>
	<g
   style="fill:#3a3a3a;fill-opacity:1"
   id="g154">
		<path
   style="fill:#3a3a3a;fill-opacity:1"
   id="path128"
   d="m 1160.7,706.1 -16.3,6.6 c 0,0 -31.7,-8.2 -47,-17.9 0,0 -79.1,26.5 -109.8,18.4 -30.6,-8.2 -26.5,-24 -25.5,-26.5 1,-2.6 62.8,16.8 133.8,-4.1 z"
   fill="#FFFFFF" />
		<path
   style="fill:#3a3a3a;fill-opacity:1"
   id="path130"
   d="m 1132.6,718.4 c 0,0 -19.9,3.1 -37.3,-5.1 0,0 -91.9,45.9 -116.9,11.2 0,0 66.4,6.6 116.9,-22.5 0.1,0.1 26.1,14.3 37.3,16.4 z"
   fill="#FFFFFF" />
		<path
   style="fill:#3a3a3a;fill-opacity:1"
   id="path132"
   d="m 1118.9,725.5 -3.1,3.6 c 0,0 -15.8,-0.5 -23.5,0 0,0 -33.7,34.2 -69.4,21.4 0,0 43.4,-11.7 70.5,-29.1 z"
   fill="#FFFFFF" />
		<path
   style="fill:#3a3a3a;fill-opacity:1"
   id="path134"
   d="m 1106.1,736.3 -11.2,-1 c 0,0 -13.3,16.8 -28.6,19.4 0,-0.1 20.9,8.6 39.8,-18.4 z"
   fill="#FFFFFF" />
		<path
   style="fill:#3a3a3a;fill-opacity:1"
   id="path136"
   d="m 1109.2,773 c 0,0 -3.1,-5.6 8.2,-12.3 11.2,-6.6 14,-9.5 18.2,-9 4.3,0.5 9,8.3 10,12.8 1,4.4 -9.9,13.8 -14,19.1 -4.1,5.3 -8.7,12.8 -8.7,12.8 0,0 -18.7,-2 -20.1,5.1 h 30.5 c 0,0 -3.4,-1.4 -4.1,-3.1 -0.7,-1.7 -1.4,-2 -1.4,-2 0,0 10.7,-14.5 17.2,-18 6.5,-3.6 13.3,-4.4 18.2,3.9 4.9,8.3 7,12.4 6.5,16.5 0,0 -14.5,-2.4 -17.2,3.4 h 26.7 c 0,0 -3.2,-26.2 -27.6,-34.7 -4.4,-2 -0.3,-10.9 -8.8,-18.4 -8.5,-7.5 -24.3,4.1 -28.9,7.1 -4.6,3.1 -7.1,5.1 -7.7,8 0,0 -3.7,-4.4 0.5,-10 4.3,-5.6 9.2,-4.9 9.2,-4.9 0,0 -2.6,-2.6 -4.4,-2.6 0,0 11.9,-13.8 16,-15.8 4.1,-2 27.6,-8.7 30,-8 2.4,0.7 7.5,15.8 23.1,27.7 15.7,11.9 42,35.1 44.9,52.1 h 16.5 c 0,0 -11.6,-21.4 -29.3,-32.7 -17.7,-11.2 -44.2,-31.8 -46.5,-48 0,0 52.9,-17.7 66.7,-25.2 0,0 30.1,11.6 69.3,16 39.1,4.4 66,-0.9 68.1,-23.8 0,0 -55.6,7.8 -85.3,2.4 -29.7,-5.4 -50,-9.5 -50,-9.5 0,0 -57.4,24.8 -73.7,29.6 -16.3,4.8 -33.9,12.4 -37.3,15.1 -3.4,2.7 -22.5,20.3 -22.5,20.3 0,0 3.7,0.3 3.9,2.7 0,0 -4.6,3.7 -5.3,9.5 -0.5,5.7 0.7,12.4 9.1,13.9 z"
   fill="#FFFFFF" />
		<path
   style="fill:#3a3a3a;fill-opacity:1"
   id="path138"
   d="m 1172.5,770.6 c 0,0 12.4,20.6 11.7,32 l 6.5,-0.2 c 0,0.1 -6.7,-26.7 -18.2,-31.8 z"
   fill="#FFFFFF" />
		<path
   style="fill:#3a3a3a;fill-opacity:1"
   id="path140"
   d="m 1179.4,766.6 c 0,0 16.8,23 16.7,36.4 l 7.1,-0.2 c 0.1,0 -8.4,-30 -23.8,-36.2 z"
   fill="#FFFFFF" />
		<path
   style="fill:#3a3a3a;fill-opacity:1"
   id="path142"
   d="m 1186.2,763.5 c 0,0 22.5,21.6 22.5,38.8 h 10 c 0,0 -14.8,-32.9 -32.5,-38.8 z"
   fill="#FFFFFF" />
		<path
   style="fill:#3a3a3a;fill-opacity:1"
   id="path144"
   d="m 1176,723.7 2.9,2.2 c 0,0 38.1,-5.6 57.7,-11.7 0,0 42.7,25.7 75.9,27.1 33.2,1.4 40.2,-16.7 40.2,-16.7 0,0 -60.9,4.8 -117.1,-20.6 z"
   fill="#FFFFFF" />
		<path
   style="fill:#3a3a3a;fill-opacity:1"
   id="path146"
   d="m 1178.9,729.3 2,2.2 c 0,0 27.9,2.7 55.3,-2.2 0,0 31,39.7 72,22.1 0,0 -54.6,-13.1 -68.9,-28.8 0,0 -45.4,5.7 -60.4,6.7 z"
   fill="#FFFFFF" />
		<path
   style="fill:#3a3a3a;fill-opacity:1"
   id="path148"
   d="m 1182.3,736.3 13.9,-0.3 c 0,0 6.3,12.4 19.8,18.7 0,-0.1 -24.2,-2.3 -33.7,-18.4 z"
   fill="#FFFFFF" />
		<path
   style="fill:#3a3a3a;fill-opacity:1"
   id="path150"
   d="m 1203.9,737.8 13.1,-0.9 c 0,0 11.6,12.9 19.6,18.2 0,0 -20.2,-0.8 -32.7,-17.3 z"
   fill="#FFFFFF" />
		<path
   style="fill:#3a3a3a;fill-opacity:1"
   id="path152"
   d="m 1224.7,737.3 10.9,-1.4 c 0,0 17.4,16.2 30,20.9 -0.1,0.1 -23.4,0.1 -40.9,-19.5 z"
   fill="#FFFFFF" />
	</g>
	<g
   style="fill:#3a3a3a;fill-opacity:1"
   id="g180">
		<path
   style="fill:#3a3a3a;fill-opacity:1"
   id="path156"
   d="m 216.3,677.5 c 0,0 55.1,-4.4 91.2,-12.6 36.1,-8.2 67.7,-24.2 67.7,-24.2 0,0 4.8,32.3 -52.8,44.9 -57.6,12.6 -106.1,-8.1 -106.1,-8.1 z"
   fill="#FFFFFF" />
		<path
   style="fill:#3a3a3a;fill-opacity:1"
   id="path158"
   d="m 223.1,686.6 c 0,0 65.7,20.8 115,5.9 0,0 -3.4,23.5 -38.5,20.1 -35,-3.5 -76.5,-26 -76.5,-26 z"
   fill="#FFFFFF" />
		<path
   style="fill:#3a3a3a;fill-opacity:1"
   id="path160"
   d="m 223.4,693.8 c 0,0 42.2,30.3 79,30 0,0 3.7,12.9 -22.8,11.2 -26.6,-1.7 -56.2,-41.2 -56.2,-41.2 z"
   fill="#FFFFFF" />
		<path
   style="fill:#3a3a3a;fill-opacity:1"
   id="path162"
   d="m 226.8,709.1 c 0,0 24.2,29.6 43.9,36.1 0,0 -3.4,3.4 -9.9,4.1 l 16,8.2 c 0,0 17.7,-19.4 32,-2.4 0,0 -6.5,-2.4 -15.3,-1 0,0 10.2,4.1 7.8,12.3 0,0 -9.2,-13.3 -18.7,-3.7 -9.5,9.6 -4.8,15.3 -4.8,15.3 0,0 -9.2,-2.7 -5.1,-15 0,0 -19.1,-7.5 -28.3,-16.3 -9.1,-9 -17.6,-37.6 -17.6,-37.6 z"
   fill="#FFFFFF" />
		<path
   style="fill:#3a3a3a;fill-opacity:1"
   id="path164"
   d="m 198.6,686.6 c 0,0 -65.7,20.8 -115,5.9 0,0 3.4,23.5 38.5,20.1 35,-3.5 76.5,-26 76.5,-26 z"
   fill="#FFFFFF" />
		<path
   style="fill:#3a3a3a;fill-opacity:1"
   id="path166"
   d="m 198.3,693.8 c 0,0 -42.2,30.3 -79,30 0,0 -3.7,12.9 22.8,11.2 26.6,-1.7 56.2,-41.2 56.2,-41.2 z"
   fill="#FFFFFF" />
		<path
   style="fill:#3a3a3a;fill-opacity:1"
   id="path168"
   d="m 194.9,709.1 c 0,0 -24.2,29.6 -43.9,36.1 0,0 3.4,3.4 9.9,4.1 l -16,8.2 c 0,0 -17.7,-19.4 -32,-2.4 0,0 6.5,-2.4 15.3,-1 0,0 -10.2,4.1 -7.8,12.3 0,0 9.2,-13.3 18.7,-3.7 9.5,9.6 4.8,15.3 4.8,15.3 0,0 9.2,-2.7 5.1,-15 0,0 19.1,-7.5 28.3,-16.3 9.1,-9 17.6,-37.6 17.6,-37.6 z"
   fill="#FFFFFF" />
		<path
   style="fill:#3a3a3a;fill-opacity:1"
   id="path170"
   d="m 232.4,648.5 c -1.8,-3.1 -5.6,-10.5 -5.6,-10.5 l -26.8,-2.6 -0.9,41.4 c -15.5,-1.4 -56.2,-5.5 -84.8,-12 -36.1,-8.2 -67.7,-24.2 -67.7,-24.2 0,0 -4.8,32.3 52.8,44.9 45,9.9 107.9,-6.2 107.9,-6.2 l 0.8,-33.7 17.6,-1.5 c 0,0 2.3,2.6 1.8,3.8 -0.5,1.3 -7.7,4.3 -7.7,4.3 15.8,-1.3 15.6,7.1 15.6,7.1 -8.2,-2.6 -11.2,4.9 -11.2,4.9 14.8,-5.1 14.8,2.6 14.8,2.6 8.7,-9.8 -4.8,-15.2 -6.6,-18.3 z"
   fill="#FFFFFF" />
		<polygon
   style="fill:#3a3a3a;fill-opacity:1"
   id="polygon172"
   points="206.1,806.8 187.5,802.7 199.5,749.4 209.2,749.9 "
   fill="#FFFFFF" />
		<polygon
   style="fill:#3a3a3a;fill-opacity:1"
   id="polygon174"
   points="161.2,796.1 187,747.1 194.4,748.4 178.6,801.5 "
   fill="#FFFFFF" />
		<polygon
   style="fill:#3a3a3a;fill-opacity:1"
   id="polygon176"
   points="216.6,806.8 235.2,802.7 223.2,749.4 213.5,749.9 "
   fill="#FFFFFF" />
		<polygon
   style="fill:#3a3a3a;fill-opacity:1"
   id="polygon178"
   points="261.5,796.1 235.7,747.1 228.3,748.4 244.2,801.5 "
   fill="#FFFFFF" />
	</g>
	<g
   style="fill:#3a3a3a;fill-opacity:1"
   id="g196">
		<path
   style="fill:#3a3a3a;fill-opacity:1"
   id="path182"
   d="m 393,794.2 c 0,0 25,11.2 48.2,6.4 23.2,-4.9 50,-13.8 71,-12.3 21,1.5 32.9,4.9 39.8,4.1 6.9,-0.8 12,3.8 10.5,7.9 0,0 9.4,2.8 9.7,7.4 0.3,4.6 0,10.5 0,10.5 0,0 -3.1,-6.4 -6.6,-5.4 -3.6,1 -32.2,15.1 -49.3,9.4 0,0 24,-2.8 34.2,-10 10.2,-7.1 17.1,-2.8 17.1,-2.8 0,0 -4.1,-6.4 -14,-4.6 0,0 4.1,-3.3 3.6,-4.9 -0.5,-1.5 -21.2,-0.5 -36.8,-1.5 -15.6,-1 -33.4,1.3 -53.9,7.7 -20.4,6.5 -55.4,2.1 -73.5,-11.9 z"
   fill="#FFFFFF" />
		<path
   style="fill:#3a3a3a;fill-opacity:1"
   id="path184"
   d="m 502.2,792.1 c 0,0 -9.7,-48.8 -7.9,-76.1 1.8,-27.3 3.8,-64.6 19.1,-95.2 15.3,-30.6 22,-36.8 22,-36.8 0,0 -31.1,-3.1 -44.9,28.1 -13.8,31.2 -15.1,65.6 -7.9,112.1 7.2,46.5 14.3,69.4 14.3,69.4 z"
   fill="#FFFFFF" />
		<path
   style="fill:#3a3a3a;fill-opacity:1"
   id="path186"
   d="m 482.3,767.6 c 0,0 -8.2,10.7 -18.1,11.7 -10,1 -14.6,-6.6 -16.1,-13.3 0,0.1 17.9,4.4 34.2,1.6 z"
   fill="#FFFFFF" />
		<path
   style="fill:#3a3a3a;fill-opacity:1"
   id="path188"
   d="m 480.5,755.6 c 0,0 -39.3,-7.1 -46.5,-19.7 0.1,0.1 -6.3,31 46.5,19.7 z"
   fill="#FFFFFF" />
		<path
   style="fill:#3a3a3a;fill-opacity:1"
   id="path190"
   d="m 477.7,741.8 c 0,0 -38.3,-22 -44.9,-52.3 0,0 -22.2,37.5 44.9,52.3 z"
   fill="#FFFFFF" />
		<path
   style="fill:#3a3a3a;fill-opacity:1"
   id="path192"
   d="m 444.3,645.4 c 0,0 4.1,45.4 34.5,89.3 -0.1,0 -72.3,-62.3 -34.5,-89.3 z"
   fill="#FFFFFF" />
		<path
   style="fill:#3a3a3a;fill-opacity:1"
   id="path194"
   d="m 476.2,720.4 c 0,0 -8.9,-37 -5.4,-65.9 3.6,-28.8 10.5,-51.6 10.5,-51.6 0,0 -54.4,13.4 -5.1,117.5 z"
   fill="#FFFFFF" />
	</g>
</g>
<g
   transform="translate(-155.88557,-442.53715)"
   clip-path="url(#clipPath300)"
   id="Designed_by_Vecteezy">
	<g
   id="g255">
		<g
   id="g231">
			<g
   id="g201">
				<path
   id="path199"
   d="m 732.3,937.7 c 0.8,0 1.6,0.7 1.6,0.7 L 720,968.2 c -1.5,0 -5.2,0.2 -6.1,0.2 -0.8,0 -1.6,-0.7 -1.6,-0.7 l -4.8,-29.8 c 2.9,0 6.5,-0.2 7.6,-0.2 0.8,0 1.6,0.7 1.6,0.7 l 1.5,14.6 c 0.1,1.3 0.1,3 0.1,4.8 0.5,-2 1,-3.9 1.5,-5.2 l 5.8,-14.7 c 2.5,0 5.7,-0.2 6.7,-0.2 z"
   fill="#ffffff" />
			</g>
			<g
   id="g205">
				<path
   id="path203"
   d="m 746.6,952.4 c 0,3.2 -1.8,5.4 -6.3,6.3 l -4.7,1 c 0.4,2 1.6,3 3.8,3 2.6,0 4.4,-2 4.4,-2 0,0 1.3,0.7 1.3,2.3 0,2.7 -4.1,5.6 -9,5.6 -4.9,0 -8.1,-3.1 -8.1,-8.3 0,-6 4.3,-14.2 11.9,-14.2 4.1,0 6.7,2.5 6.7,6.3 z m -8,3.1 c 1,-0.3 1.3,-1.2 1.3,-2.1 0,-0.9 -0.3,-2.2 -1.3,-2.2 -1.9,0 -2.7,3 -3,5.3 z"
   fill="#ffffff" />
			</g>
			<g
   id="g209">
				<path
   id="path207"
   d="m 759.4,946.1 c 3.8,0 6.7,2 6.7,4.7 0,3.3 -4,4.5 -4,4.5 0,0 -1.2,-3.6 -3.9,-3.6 -1.8,0 -2.9,1.8 -2.9,5.8 0,3.6 1,5.2 3.3,5.2 2.4,0 3.9,-1.6 3.9,-1.6 0,0 1.3,0.7 1.3,2.2 0,2.6 -4,5.3 -8.6,5.3 -4.9,0 -8,-3.1 -8,-8.2 0.1,-6.1 4.5,-14.3 12.2,-14.3 z"
   fill="#ffffff" />
			</g>
			<g
   id="g213">
				<path
   id="path211"
   d="m 777.8,941.3 c 0.9,0 1.5,0.7 1.5,0.7 l -0.7,4.5 h 4.8 l -1.1,3.5 c -0.4,1.1 -0.9,1.7 -2,1.7 h -2.5 l -1.4,8.9 c -0.2,1.4 0.1,2.1 1.1,2.1 0.9,0 1.8,-0.5 1.8,-0.5 0,0 1.3,0.7 1.3,2.2 0,2.2 -3.1,4.3 -7,4.3 -4.1,0 -5.8,-2.5 -5.1,-7 l 1.6,-9.9 h -2.6 l 1.1,-3.6 c 0.3,-0.9 1.1,-1.6 2,-1.6 h 1.3 l 1.5,-4.2 c 1.8,-0.5 3.6,-1.1 4.4,-1.1 z"
   fill="#ffffff" />
			</g>
			<g
   id="g217">
				<path
   id="path215"
   d="m 801.2,952.4 c 0,3.2 -1.8,5.4 -6.3,6.3 l -4.7,1 c 0.4,2 1.6,3 3.8,3 2.6,0 4.4,-2 4.4,-2 0,0 1.3,0.7 1.3,2.3 0,2.7 -4.1,5.6 -9,5.6 -4.9,0 -8.1,-3.1 -8.1,-8.3 0,-6 4.3,-14.2 11.9,-14.2 4.1,0 6.7,2.5 6.7,6.3 z m -8,3.1 c 1,-0.3 1.3,-1.2 1.3,-2.1 0,-0.9 -0.3,-2.2 -1.3,-2.2 -1.9,0 -2.7,3 -3,5.3 z"
   fill="#ffffff" />
			</g>
			<g
   id="g221">
				<path
   id="path219"
   d="m 820.5,952.4 c 0,3.2 -1.8,5.4 -6.3,6.3 l -4.7,1 c 0.4,2 1.6,3 3.8,3 2.6,0 4.4,-2 4.4,-2 0,0 1.3,0.7 1.3,2.3 0,2.7 -4.1,5.6 -9,5.6 -4.9,0 -8.1,-3.1 -8.1,-8.3 0,-6 4.3,-14.2 11.9,-14.2 4.1,0 6.7,2.5 6.7,6.3 z m -8,3.1 c 1,-0.3 1.3,-1.2 1.3,-2.1 0,-0.9 -0.3,-2.2 -1.3,-2.2 -1.9,0 -2.7,3 -3,5.3 z"
   fill="#ffffff" />
			</g>
			<g
   id="g225">
				<path
   id="path223"
   d="m 836.3,960.5 c 0,0 1.6,1.5 1.6,4 0,3.3 -2.8,4.2 -5.2,4.2 -3.1,0 -5.3,-1.5 -7.6,-2.3 -0.6,0.7 -1.3,1.5 -1.9,2.3 0,0 -3.5,-0.1 -3.5,-2.4 0,-2.9 4.8,-7.8 9.9,-13.4 -0.6,-0.1 -1.2,-0.2 -1.7,-0.2 -2.9,0 -4.1,1.5 -4.1,1.5 0,0 -1.5,-1.7 -1.4,-4 0.2,-3.1 3.1,-4 5.5,-4 2.5,0 4.3,1 6.1,1.7 l 1.5,-1.7 c 0,0 3.5,0.1 3.5,2.5 0,2.8 -4.6,7.6 -9.6,13 1.1,0.3 2,0.5 3,0.5 2.7,0 3.9,-1.7 3.9,-1.7 z"
   fill="#ffffff" />
			</g>
			<g
   id="g229">
				<path
   id="path227"
   d="m 858.7,966.7 c -1.2,7.6 -6.4,11.4 -13,11.4 -4.2,0 -7.3,-2.2 -7.3,-4.8 0,-1.7 1.4,-2.5 1.4,-2.5 0,0 1.4,1.3 4.2,1.3 2.6,0 6.2,-1.1 6.8,-5.1 l 0.5,-3.1 c -1.8,2.6 -4.1,4.6 -7.1,4.6 -3.3,0 -4.8,-2.7 -3.9,-8.3 l 0.9,-6 c 0.6,-3.7 0.7,-6.7 0.7,-6.7 2.4,-0.4 5.5,-1.5 6.6,-1.5 0.8,0 1.6,0.7 1.6,0.7 l -1.2,7.5 -1.1,6.9 c -0.1,0.6 0,1 0.6,1 2.8,0 4.3,-7.9 4.3,-7.9 0.6,-3.7 0.7,-6.7 0.7,-6.7 2.4,-0.4 5.5,-1.5 6.6,-1.5 0.9,0 1.6,0.7 1.6,0.7 l -1.2,7.5 z"
   fill="#ffffff" />
			</g>
		</g>
		<g
   id="g253">
			<path
   id="path233"
   d="m 538.1,947.4 h 7.4 c 1.7,0 3,0.1 3.8,0.4 1.2,0.3 2.2,1 3,1.9 0.8,0.9 1.5,2 1.9,3.3 0.4,1.3 0.7,2.9 0.7,4.8 0,1.7 -0.2,3.1 -0.6,4.3 -0.5,1.5 -1.2,2.7 -2.2,3.6 -0.7,0.7 -1.7,1.2 -2.9,1.6 -0.9,0.3 -2.1,0.4 -3.6,0.4 h -7.7 v -20.3 z m 4.1,3.4 v 13.4 h 3 c 1.1,0 2,-0.1 2.5,-0.2 0.7,-0.2 1.2,-0.4 1.6,-0.8 0.4,-0.4 0.8,-1 1.1,-1.9 0.3,-0.9 0.4,-2.1 0.4,-3.7 0,-1.6 -0.1,-2.8 -0.4,-3.6 -0.3,-0.8 -0.7,-1.5 -1.2,-2 -0.5,-0.5 -1.1,-0.8 -1.9,-0.9 -0.6,-0.1 -1.7,-0.2 -3.3,-0.2 h -1.8 z"
   fill="#ffffff" />
			<path
   id="path235"
   d="m 566.4,962.9 3.9,0.6 c -0.5,1.4 -1.3,2.5 -2.3,3.2 -1,0.7 -2.4,1.1 -4,1.1 -2.5,0 -4.4,-0.8 -5.6,-2.5 -1,-1.3 -1.4,-3 -1.4,-5 0,-2.4 0.6,-4.3 1.9,-5.7 1.3,-1.4 2.9,-2.1 4.8,-2.1 2.2,0 3.9,0.7 5.1,2.2 1.3,1.4 1.9,3.6 1.8,6.6 h -9.7 c 0,1.1 0.3,2 0.9,2.7 0.6,0.6 1.3,1 2.2,1 0.6,0 1.1,-0.2 1.5,-0.5 0.3,-0.4 0.7,-0.9 0.9,-1.6 z m 0.2,-3.9 c 0,-1.1 -0.3,-2 -0.9,-2.6 -0.6,-0.6 -1.2,-0.9 -2,-0.9 -0.8,0 -1.5,0.3 -2.1,0.9 -0.6,0.6 -0.8,1.4 -0.8,2.5 h 5.8 z"
   fill="#ffffff" />
			<path
   id="path237"
   d="m 571.6,963.4 3.9,-0.6 c 0.2,0.8 0.5,1.3 1,1.7 0.5,0.4 1.2,0.6 2.1,0.6 1,0 1.8,-0.2 2.3,-0.6 0.3,-0.3 0.5,-0.6 0.5,-1 0,-0.3 -0.1,-0.5 -0.3,-0.7 -0.2,-0.2 -0.6,-0.4 -1.3,-0.5 -3.1,-0.7 -5.1,-1.3 -5.9,-1.9 -1.2,-0.8 -1.7,-1.9 -1.7,-3.3 0,-1.3 0.5,-2.3 1.5,-3.2 1,-0.9 2.6,-1.3 4.7,-1.3 2,0 3.5,0.3 4.5,1 1,0.7 1.6,1.6 2,2.9 l -3.6,0.7 c -0.2,-0.6 -0.5,-1 -0.9,-1.3 -0.4,-0.3 -1.1,-0.5 -1.9,-0.5 -1,0 -1.7,0.1 -2.2,0.4 -0.3,0.2 -0.4,0.5 -0.4,0.8 0,0.3 0.1,0.5 0.4,0.7 0.3,0.3 1.6,0.6 3.6,1.1 2.1,0.5 3.5,1 4.3,1.7 0.8,0.7 1.2,1.6 1.2,2.9 0,1.3 -0.6,2.5 -1.7,3.5 -1.1,1 -2.8,1.4 -5,1.4 -2,0 -3.6,-0.4 -4.7,-1.2 -1.2,-0.9 -2,-2 -2.4,-3.3 z"
   fill="#ffffff" />
			<path
   id="path239"
   d="m 588.1,950.9 v -3.6 h 3.9 v 3.6 z m 0,16.6 v -14.6 h 3.9 v 14.6 z"
   fill="#ffffff" />
			<path
   id="path241"
   d="m 595,968.5 4.4,0.5 c 0.1,0.5 0.2,0.9 0.5,1.1 0.4,0.3 0.9,0.4 1.7,0.4 1,0 1.8,-0.2 2.3,-0.5 0.3,-0.2 0.6,-0.5 0.8,-1 0.1,-0.3 0.2,-0.9 0.2,-1.8 v -2.1 c -1.2,1.6 -2.6,2.4 -4.4,2.4 -2,0 -3.5,-0.8 -4.7,-2.5 -0.9,-1.3 -1.3,-2.9 -1.3,-4.9 0,-2.4 0.6,-4.3 1.8,-5.6 1.2,-1.3 2.6,-1.9 4.4,-1.9 1.8,0 3.3,0.8 4.5,2.4 v -2.1 h 3.6 V 966 c 0,1.7 -0.1,3 -0.4,3.9 -0.3,0.9 -0.7,1.5 -1.2,2 -0.5,0.5 -1.2,0.9 -2.1,1.1 -0.9,0.3 -1.9,0.4 -3.3,0.4 -2.5,0 -4.2,-0.4 -5.3,-1.3 -1,-0.8 -1.6,-1.9 -1.6,-3.2 0.1,-0.1 0.1,-0.2 0.1,-0.4 z m 3.5,-8.6 c 0,1.6 0.3,2.7 0.9,3.4 0.6,0.7 1.3,1.1 2.2,1.1 0.9,0 1.7,-0.4 2.4,-1.1 0.7,-0.7 1,-1.8 1,-3.3 0,-1.5 -0.3,-2.6 -0.9,-3.4 -0.6,-0.7 -1.4,-1.1 -2.4,-1.1 -0.9,0 -1.7,0.4 -2.3,1.1 -0.6,0.7 -0.9,1.8 -0.9,3.3 z"
   fill="#ffffff" />
			<path
   id="path243"
   d="m 625.3,967.5 h -3.9 V 960 c 0,-1.6 -0.1,-2.6 -0.2,-3.1 -0.2,-0.5 -0.4,-0.8 -0.8,-1.1 -0.4,-0.3 -0.8,-0.4 -1.3,-0.4 -0.7,0 -1.3,0.2 -1.8,0.6 -0.5,0.4 -0.9,0.9 -1.1,1.5 -0.2,0.6 -0.3,1.7 -0.3,3.4 v 6.6 H 612 v -14.6 h 3.6 v 2.1 c 1.3,-1.7 2.9,-2.5 4.8,-2.5 0.9,0 1.6,0.2 2.3,0.5 0.7,0.3 1.2,0.7 1.6,1.2 0.4,0.5 0.6,1 0.8,1.6 0.1,0.6 0.2,1.5 0.2,2.6 z"
   fill="#ffffff" />
			<path
   id="path245"
   d="m 637.2,962.9 3.9,0.6 c -0.5,1.4 -1.3,2.5 -2.3,3.2 -1,0.7 -2.4,1.1 -4,1.1 -2.5,0 -4.4,-0.8 -5.6,-2.5 -1,-1.3 -1.4,-3 -1.4,-5 0,-2.4 0.6,-4.3 1.9,-5.7 1.3,-1.4 2.9,-2.1 4.8,-2.1 2.2,0 3.9,0.7 5.1,2.2 1.3,1.4 1.9,3.6 1.8,6.6 h -9.7 c 0,1.1 0.3,2 0.9,2.7 0.6,0.6 1.3,1 2.2,1 0.6,0 1.1,-0.2 1.5,-0.5 0.3,-0.4 0.6,-0.9 0.9,-1.6 z m 0.2,-3.9 c 0,-1.1 -0.3,-2 -0.9,-2.6 -0.6,-0.6 -1.2,-0.9 -2,-0.9 -0.8,0 -1.5,0.3 -2.1,0.9 -0.6,0.6 -0.8,1.4 -0.8,2.5 h 5.8 z"
   fill="#ffffff" />
			<path
   id="path247"
   d="m 657.2,967.5 h -3.6 v -2.1 c -0.6,0.8 -1.3,1.5 -2.1,1.9 -0.8,0.4 -1.6,0.6 -2.5,0.6 -1.7,0 -3.1,-0.7 -4.3,-2 -1.2,-1.4 -1.8,-3.2 -1.8,-5.7 0,-2.5 0.6,-4.4 1.7,-5.7 1.2,-1.3 2.6,-1.9 4.4,-1.9 1.6,0 3,0.7 4.2,2 v -7.3 h 3.9 v 20.2 z m -10.3,-7.6 c 0,1.6 0.2,2.7 0.6,3.4 0.6,1 1.5,1.5 2.6,1.5 0.9,0 1.6,-0.4 2.3,-1.1 0.6,-0.8 0.9,-1.9 0.9,-3.4 0,-1.7 -0.3,-2.9 -0.9,-3.6 -0.6,-0.7 -1.4,-1.1 -2.3,-1.1 -0.9,0 -1.7,0.4 -2.3,1.1 -0.6,0.7 -0.9,1.8 -0.9,3.2 z"
   fill="#ffffff" />
			<path
   id="path249"
   d="m 667.6,967.5 v -20.2 h 3.9 v 7.3 c 1.2,-1.4 2.6,-2 4.2,-2 1.8,0 3.3,0.6 4.4,1.9 1.2,1.3 1.7,3.1 1.7,5.6 0,2.5 -0.6,4.4 -1.8,5.8 -1.2,1.3 -2.6,2 -4.3,2 -0.8,0 -1.7,-0.2 -2.5,-0.6 -0.8,-0.4 -1.5,-1 -2.1,-1.9 v 2.1 z m 3.8,-7.6 c 0,1.5 0.2,2.6 0.7,3.4 0.7,1 1.6,1.5 2.7,1.5 0.9,0 1.6,-0.4 2.2,-1.1 0.6,-0.7 0.9,-1.9 0.9,-3.4 0,-1.7 -0.3,-2.9 -0.9,-3.6 -0.6,-0.7 -1.4,-1.1 -2.3,-1.1 -0.9,0 -1.7,0.4 -2.3,1.1 -0.7,0.6 -1,1.7 -1,3.2 z"
   fill="#ffffff" />
			<path
   id="path251"
   d="m 682.6,952.9 h 4.1 l 3.5,10.4 3.4,-10.4 h 4 l -5.2,14.1 -0.9,2.5 c -0.3,0.9 -0.7,1.5 -1,2 -0.3,0.4 -0.7,0.8 -1.1,1.1 -0.4,0.3 -0.9,0.5 -1.5,0.7 -0.6,0.2 -1.2,0.2 -2,0.2 -0.7,0 -1.5,-0.1 -2.2,-0.2 l -0.3,-3 c 0.6,0.1 1.2,0.2 1.6,0.2 0.9,0 1.6,-0.3 2,-0.8 0.4,-0.5 0.8,-1.2 1,-2 z"
   fill="#ffffff" />
		</g>
	</g>
</g>
<text
   style="font-style:normal;font-weight:normal;font-size:40px;line-height:1.25;font-family:sans-serif;white-space:pre;shape-inside:url(#rect1139);fill:#000000;fill-opacity:1;stroke:none;"
   id="text1137"
   xml:space="preserve"
   transform="translate(-502.29805,-404.25953)" /><text
   style="font-style:normal;font-variant:normal;font-weight:normal;font-stretch:normal;font-size:40px;line-height:1.25;font-family:'Brush Script MT';-inkscape-font-specification:'Brush Script MT';white-space:pre;shape-inside:url(#rect1145);fill:#000000;fill-opacity:1;stroke:none;"
   id="text1143"
   xml:space="preserve"
   transform="translate(-502.29805,-404.25953)" /><text
   xml:space="preserve"
   id="text147"
   style="font-style:normal;font-variant:normal;font-weight:normal;font-stretch:normal;font-size:40px;line-height:1.25;font-family:Righteous;-inkscape-font-specification:Righteous;white-space:pre;shape-inside:url(#rect149);fill:#000000;fill-opacity:1;stroke:none;"
   transform="translate(-502.29805,-404.25953)" /><text
   transform="translate(-82.727484,-15.483287)"
   xml:space="preserve"
   id="text982"
   style="font-style:normal;font-weight:normal;font-size:40px;line-height:1.25;font-family:sans-serif;white-space:pre;shape-inside:url(#rect984);fill:#000000;fill-opacity:1;stroke:none;" /><text
   transform="translate(-82.727484,-15.483287)"
   xml:space="preserve"
   id="text988"
   style="font-style:normal;font-weight:normal;font-size:40px;line-height:1.25;font-family:sans-serif;white-space:pre;shape-inside:url(#rect990);fill:#000000;fill-opacity:1;stroke:none;" /><text
   xml:space="preserve"
   id="text994"
   style="font-size:128px;line-height:1.25;font-family:Righteous;-inkscape-font-specification:Righteous;white-space:pre;shape-inside:url(#rect996);fill:#3a3a3a;fill-opacity:1;"
   transform="translate(-603.30317,-463.33148)"><tspan
     x="776.94141"
     y="636.42476"><tspan
       style="font-size:128px;fill:#3a3a3a;fill-opacity:1">HARPIA
</tspan></tspan></text></svg>
